# xmcd
#
# Track frame offsets:
#	150
#	17679
#	29858
#	43728
#	57008
#	69314
#	81549
#	95665
#	106760
#	120938
#	132315
#	144734
#	156359
#	170806
#	185240
#
# Disc length: 2632 seconds
#
# Revision: 0
# Processed by: cddbd v1.5.2PL0 Copyright (c) Steve Scherf et al.
# Submitted via: EasyCDDAExtractor 16.0.6.1
#
DISCID=db0a460f
DTITLE=Συλλογικός δίσκος - Τα καλύτερα ελληνικά τραγούδια 1963
DYEAR=1963
DGENRE=Ποικίλη
TTITLE0=Μπιθικώτσης Γρηγόρης - Είμαι αητός χωρίς φτερά [Μ. Χατζιδάκι-Ε. Παπαγι
TTITLE0=αννοπούλου]
TTITLE1=Λίντα Μαίρη - Θαλασσοπούλια [Μ. Χατζιδάκι]
TTITLE2=Μπιθικώτσης Γρηγόρης - Άπονη ζωή [Σ. Ξαρχάκου-Λ. Παπαδόπουλου]
TTITLE3=Βογιατζής Γιάννης-Βάνου Τζένη - Το αμαξάκι [Κ. Καπνίση-Τ. Μαστοράκη]
TTITLE4=Βογιατζής Γιάννης-Καμπά Νίκη - Πέταξε ένα πουλί [Κ. Κλαββά-Α. Αλεξόπου
TTITLE4=λου]
TTITLE5=Μπιθικώτσης Γρηγόρης - Βάρκα στο γιαλό [Μ. Θεοδωράκη]
TTITLE6=Βουγιουκλάκη Αλίκη - Ο αμαξάς [Μ. Χατζιδάκι-Α. Σακελλάριου]
TTITLE7=Μπιθικώτσης Γρηγόρης - Η κυρά [Μ. Χατζιδάκι]
TTITLE8=Γαβαλάς Πάνος - Κάθε λιμάνι και καημός [Γ. Κατσαρού-Πυθαγόρα]
TTITLE9=Μπιθικώτσης Γρηγόρης - Στα χέρια σου μεγάλωσαν [Σ. Ξαρχάκου-Λ. Παπαδόπ
TTITLE9=ουλου]
TTITLE10=Γαβαλάς Πάνος - Λαϊκό τσα-τσα [Α. Καλδάρα]
TTITLE11=Ζαμπέτας Γιώργος - Ο μαθητής [Γ. Ζαμπέτα-Χ. Βασιλειάδη]
TTITLE12=Πάνου Πόλυ - Εμείς μαζί δεν κάνουμε [Γ. Καραμπεσίνη]
TTITLE13=Μπιθικώτσης Γρηγόρης - Του Βοτανικού ο μάγκας [Γ. Μπιθικώτση-Α. Τσώλη
TTITLE13=]
TTITLE14=Αγγελόπουλος Μανώλης - Όσο αξίζεις εσύ [Α. Καλδάρα]
EXTD=
EXTT0=
EXTT1=
EXTT2=
EXTT3=
EXTT4=
EXTT5=
EXTT6=
EXTT7=
EXTT8=
EXTT9=
EXTT10=
EXTT11=
EXTT12=
EXTT13=
EXTT14=
PLAYORDER=
